<svg width="16" height="19" viewBox="0 0 16 19" fill="none" xmlns="http://www.w3.org/2000/svg">
<path d="M1 4.7L3.33333 1.5H12.6667L15 4.7M1 4.7V15.9C1 16.3243 1.16389 16.7313 1.45561 17.0314C1.74733 17.3314 2.143 17.5 2.55556 17.5H13.4444C13.857 17.5 14.2527 17.3314 14.5444 17.0314C14.8361 16.7313 15 16.3243 15 15.9V4.7M1 4.7H15M11.1111 7.9C11.1111 8.74869 10.7833 9.56263 10.1999 10.1627C9.61644 10.7629 8.82512 11.1 8 11.1C7.17488 11.1 6.38356 10.7629 5.80011 10.1627C5.21667 9.56263 4.88889 8.74869 4.88889 7.9" stroke="black" stroke-width="1.5" stroke-linecap="round" stroke-linejoin="round"/>
</svg>
