<svg width="157" height="157" viewBox="0 0 157 157" fill="none" xmlns="http://www.w3.org/2000/svg">
<g filter="url(#filter0_b_13_82)">
<path d="M73.7725 14.4841L83.8145 25.1652L95.8525 16.7977L101.636 30.2692L115.81 26.5236L116.637 41.1607L131.237 42.4887L127.008 56.5259L140.273 62.7673L131.498 74.5115L141.829 84.9136L129.566 92.9483L135.716 106.256L121.445 109.612L122.672 124.221L108.114 122.494L104.271 136.642L91.1815 130.039L82.7313 142.019L72.6893 131.338L60.6513 139.706L54.8681 126.234L40.6942 129.98L39.8673 115.343L25.2672 114.015L29.4963 99.9777L16.2308 93.7363L25.0059 81.9921L14.6752 71.59L26.9378 63.5553L20.7878 50.2472L35.0589 46.8911L33.8314 32.2822L48.3897 34.0095L52.2328 19.8618L65.3224 26.4642L73.7725 14.4841Z" fill="white" fill-opacity="0.44"/>
<path opacity="0.45" d="M73.1713 5.92494L84.2657 17.7254L84.5611 18.0397L84.9153 17.7935L98.2149 8.5491L104.604 23.4325L104.774 23.8288L105.191 23.7186L120.851 19.5804L121.764 35.7515L121.789 36.1822L122.218 36.2213L138.349 37.6884L133.676 53.1967L133.552 53.6098L133.942 53.7934L148.598 60.689L138.903 73.664L138.645 74.0095L138.949 74.3156L150.362 85.8078L136.815 94.6846L136.454 94.921L136.635 95.3126L143.429 110.015L127.662 113.723L127.243 113.822L127.279 114.252L128.635 130.392L112.551 128.483L112.122 128.433L112.009 128.849L107.763 144.479L93.302 137.185L92.9169 136.991L92.6683 137.343L83.3325 150.579L72.2381 138.778L71.9427 138.464L71.5885 138.71L58.2889 147.955L51.8995 133.071L51.7294 132.675L51.3123 132.785L35.653 136.923L34.7394 120.752L34.7151 120.322L34.2855 120.282L18.1553 118.815L22.8276 103.307L22.952 102.894L22.5617 102.71L7.90601 95.8148L17.6007 82.8398L17.8589 82.4942L17.5549 82.1881L6.14152 70.6959L19.6893 61.8191L20.0501 61.5827L19.8691 61.1912L13.0746 46.4884L28.8414 42.7806L29.2613 42.6818L29.2251 42.252L27.869 26.112L43.9531 28.0204L44.3814 28.0712L44.4945 27.6549L48.7404 12.0245L63.2017 19.3188L63.5869 19.5131L63.8355 19.1606L73.1713 5.92494Z" stroke="white" stroke-opacity="0.44"/>
<path d="M45.7728 80.4002C44.5814 80.4839 43.5414 80.2889 42.6529 79.8152C41.7644 79.3415 41.061 78.6618 40.5427 77.7761C40.0244 76.8904 39.7247 75.8714 39.6438 74.7191C39.5619 73.5526 39.7227 72.4941 40.1263 71.5436C40.537 70.5927 41.1529 69.8239 41.974 69.2373C42.7951 68.6506 43.7908 68.3162 44.9609 68.234C46.3154 68.1389 47.4744 68.4041 48.4377 69.0298C49.4075 69.6479 50.0619 70.5419 50.4006 71.7118L47.5611 72.6833C47.349 72.0978 47.0184 71.6528 46.5694 71.3484C46.1275 71.0434 45.6406 70.9097 45.1087 70.947C44.4988 70.9899 44.0094 71.1744 43.6403 71.5005C43.2707 71.8195 43.0118 72.2416 42.8633 72.7667C42.7144 73.2847 42.6625 73.8637 42.7074 74.5039C42.7779 75.5068 43.0549 76.3058 43.5386 76.9009C44.0288 77.4883 44.7101 77.7514 45.5824 77.6901C46.2348 77.6443 46.7208 77.4601 47.0402 77.1374C47.3596 76.8147 47.5849 76.37 47.7162 75.8033L50.7169 76.2144C50.4766 77.4607 49.9258 78.4465 49.0646 79.1718C48.2033 79.8971 47.106 80.3065 45.7728 80.4002Z" fill="white"/>
<path d="M57.9711 79.5433C56.8152 79.6245 55.7828 79.4361 54.8741 78.9781C53.9653 78.5202 53.2343 77.8531 52.681 76.977C52.1343 76.0933 51.8192 75.0576 51.7358 73.8697C51.6513 72.6676 51.8254 71.5939 52.2578 70.6486C52.6898 69.6961 53.3239 68.9332 54.1602 68.3598C54.9966 67.7864 55.9821 67.4598 57.1167 67.3801C58.2727 67.2989 59.305 67.4873 60.2138 67.9453C61.1297 68.4027 61.8645 69.0731 62.4183 69.9563C62.9716 70.8324 63.2899 71.8643 63.3734 73.0522C63.4573 74.2472 63.2833 75.3209 62.8513 76.2733C62.4259 77.2182 61.7918 77.9811 60.9489 78.5621C60.1126 79.1355 59.12 79.4626 57.9711 79.5433ZM57.7808 76.8333C58.7098 76.768 59.3793 76.4064 59.7892 75.7486C60.2057 75.0832 60.3792 74.2561 60.3097 73.2674C60.2378 72.2431 59.9463 71.4416 59.4353 70.8628C58.9313 70.2834 58.2219 70.0259 57.3071 70.0902C56.6759 70.1345 56.1682 70.3131 55.784 70.626C55.3997 70.9389 55.1261 71.3549 54.963 71.8739C54.807 72.3923 54.7525 72.9859 54.7994 73.6545C54.8719 74.6859 55.1601 75.4912 55.664 76.0706C56.1745 76.6423 56.8801 76.8965 57.7808 76.8333Z" fill="white"/>
<path d="M79.9463 77.678L79.4681 70.8709C79.4147 70.1098 79.1923 69.5321 78.8012 69.1378C78.4166 68.736 77.9087 68.5572 77.2776 68.6015C76.8734 68.6299 76.5291 68.7506 76.2447 68.9636C75.9598 69.1695 75.7443 69.4491 75.5981 69.8024C75.4584 70.1482 75.4041 70.5416 75.4351 70.9826L74.1654 70.2569C74.11 69.4674 74.2454 68.7573 74.5717 68.1268C74.9051 67.4958 75.3721 66.9913 75.9727 66.6131C76.5799 66.2274 77.2664 66.0076 78.0323 65.9538C79.3443 65.8616 80.3611 66.1833 81.0827 66.9189C81.8108 67.6469 82.2191 68.6404 82.3076 69.8994L82.8397 77.4747L79.9463 77.678ZM66.0961 78.6509L65.2866 67.1279L67.8397 66.9485L68.108 70.7682L68.4697 70.7428L69.0108 78.4461L66.0961 78.6509ZM73.0318 78.1637L72.5537 71.3566C72.5002 70.5955 72.2779 70.0178 71.8867 69.6235C71.5022 69.2217 70.9943 69.0429 70.3631 69.0872C69.7603 69.1296 69.2893 69.3735 68.95 69.8191C68.6173 70.2571 68.4742 70.8068 68.5206 71.4683L67.248 70.6999C67.195 69.946 67.3355 69.257 67.6694 68.6331C68.0033 68.0093 68.4736 67.5009 69.0802 67.108C69.694 66.7146 70.3945 66.4903 71.1817 66.435C72.0823 66.3717 72.8334 66.512 73.4348 66.8557C74.0433 67.199 74.5083 67.681 74.8299 68.3017C75.1514 68.9224 75.3392 69.6169 75.3931 70.3851L75.9253 77.9604L73.0318 78.1637Z" fill="white"/>
<path d="M84.8967 64.142L84.7168 61.5814L87.6103 61.3781L87.7902 63.9388L84.8967 64.142ZM85.8186 77.2655L85.0091 65.7425L87.9026 65.5392L88.712 77.0622L85.8186 77.2655Z" fill="white"/>
<path d="M99.7304 76.2882L99.3482 70.8468C99.3297 70.5836 99.2921 70.2503 99.2352 69.8469C99.1779 69.4363 99.0602 69.03 98.8823 68.6279C98.7044 68.2258 98.4355 67.898 98.0756 67.6445C97.7228 67.3905 97.2379 67.2852 96.621 67.3285C96.3727 67.346 96.1096 67.4038 95.8314 67.5019C95.5532 67.6001 95.298 67.7717 95.0658 68.0168C94.8331 68.2547 94.6504 68.5963 94.5178 69.0417C94.3922 69.4865 94.3547 70.0682 94.4051 70.7866L92.6902 70.1136C92.6263 69.2032 92.7507 68.3366 93.0635 67.5141C93.3763 66.6915 93.8842 66.009 94.5873 65.4663C95.2975 64.9232 96.2163 64.6121 97.3439 64.5329C98.2446 64.4696 98.9893 64.571 99.5781 64.837C100.167 65.103 100.634 65.4598 100.979 65.9073C101.331 66.3543 101.592 66.8292 101.763 67.3319C101.933 67.8274 102.047 68.284 102.105 68.7017C102.163 69.1194 102.199 69.4242 102.212 69.6163L102.666 76.082L99.7304 76.2882ZM91.8799 76.8397L91.0704 65.3167L93.6447 65.1358L93.9131 68.9555L94.2747 68.9301L94.8159 76.6335L91.8799 76.8397Z" fill="white"/>
<path d="M110.724 80.9843C110.071 81.0301 109.443 80.967 108.839 80.795C108.236 80.63 107.688 80.3755 107.193 80.0314C106.706 79.6939 106.3 79.2864 105.974 78.8089L108.563 77.319C108.772 77.6474 109.052 77.8886 109.405 78.0425C109.765 78.196 110.147 78.2585 110.551 78.2301C110.984 78.1997 111.387 78.0963 111.759 77.9201C112.132 77.7509 112.422 77.5125 112.628 77.205C112.842 76.904 112.927 76.5406 112.883 76.1149L112.648 72.7647L113.009 72.7392L112.383 63.8196L114.915 63.6417L115.779 75.9543C115.799 76.2388 115.804 76.5065 115.793 76.7575C115.79 77.0151 115.765 77.2706 115.719 77.524C115.584 78.2411 115.281 78.845 114.809 79.3356C114.345 79.8257 113.758 80.2064 113.05 80.4777C112.343 80.7561 111.567 80.925 110.724 80.9843ZM110.109 75.8809C109.052 75.9551 108.108 75.7534 107.276 75.2757C106.444 74.798 105.773 74.1161 105.261 73.2299C104.757 72.3432 104.465 71.3237 104.384 70.1714C104.301 68.9978 104.452 67.94 104.834 66.9982C105.224 66.0487 105.808 65.2822 106.586 64.6985C107.365 64.1149 108.304 63.7844 109.403 63.7072C110.495 63.6305 111.432 63.8327 112.214 64.3139C112.996 64.7951 113.611 65.481 114.059 66.3717C114.506 67.2623 114.77 68.2838 114.851 69.4361C114.932 70.5884 114.81 71.6371 114.484 72.582C114.166 73.5265 113.642 74.2924 112.914 74.8797C112.185 75.4669 111.25 75.8007 110.109 75.8809ZM110.395 73.266C111.041 73.2207 111.544 73.0387 111.907 72.7202C112.276 72.4012 112.528 71.9725 112.661 71.4342C112.794 70.8959 112.836 70.2782 112.787 69.5811C112.739 68.884 112.61 68.2783 112.403 67.7639C112.196 67.2495 111.894 66.8597 111.498 66.5944C111.109 66.3287 110.613 66.217 110.01 66.2594C109.365 66.3047 108.844 66.5021 108.448 66.8516C108.059 67.1934 107.783 67.6381 107.622 68.1855C107.461 68.7258 107.402 69.316 107.447 69.9562C107.493 70.6035 107.63 71.1871 107.859 71.7072C108.087 72.2201 108.411 72.6191 108.83 72.9041C109.25 73.1892 109.771 73.3098 110.395 73.266Z" fill="white"/>
<path d="M59.5243 97.1257C58.0775 97.2273 56.8844 96.9823 55.9449 96.3907C55.012 95.7914 54.4075 94.8975 54.1316 93.7089L57.0574 93.053C57.2159 93.5851 57.5116 93.9897 57.9444 94.2666C58.3843 94.5431 58.9234 94.6589 59.5616 94.6141C60.0864 94.5772 60.4837 94.4492 60.7533 94.2301C61.0225 94.0039 61.1444 93.7095 61.1189 93.3467C61.1029 93.1191 61.0334 92.9417 60.9105 92.8145C60.787 92.6802 60.5219 92.5594 60.1153 92.4522C59.7158 92.3445 59.0934 92.2095 58.2482 92.0473C57.2951 91.8712 56.5279 91.6534 55.9467 91.394C55.3654 91.1347 54.9362 90.8074 54.659 90.4123C54.3813 90.0101 54.2218 89.5138 54.1803 88.9234C54.1283 88.1836 54.2713 87.5303 54.6092 86.9633C54.9466 86.3892 55.4454 85.9324 56.1057 85.5929C56.7727 85.2459 57.5706 85.0397 58.4996 84.9744C59.4003 84.9112 60.2079 84.9938 60.9223 85.2224C61.6368 85.451 62.2248 85.8064 62.6863 86.2887C63.1549 86.7704 63.4633 87.3563 63.6115 88.0464L60.6917 88.7876C60.6121 88.3643 60.404 88.0394 60.0674 87.8129C59.7308 87.5864 59.2879 87.4709 58.7389 87.4666C58.2045 87.4684 57.7804 87.5697 57.4667 87.7704C57.16 87.9707 57.0185 88.2379 57.042 88.5722C57.0559 88.7714 57.1351 88.9338 57.2793 89.0595C57.4306 89.1847 57.7276 89.3032 58.1702 89.4151C58.6199 89.5265 59.2995 89.6646 60.209 89.8294C61.0973 89.9958 61.8146 90.2134 62.3608 90.4824C62.9137 90.7438 63.3257 91.0794 63.5968 91.4893C63.8674 91.892 64.0237 92.3921 64.0657 92.9896C64.1486 94.1703 63.7883 95.1285 62.9848 95.864C62.1812 96.5995 61.0277 97.0201 59.5243 97.1257Z" fill="white"/>
<path d="M71.84 96.2605C70.684 96.3417 69.6517 96.1534 68.7429 95.6954C67.8341 95.2374 67.1031 94.5704 66.5498 93.6943C66.0031 92.8106 65.6881 91.7748 65.6046 90.5869C65.5202 89.3849 65.6942 88.3111 66.1267 87.3658C66.5586 86.4134 67.1928 85.6504 68.0291 85.077C68.8654 84.5036 69.8509 84.1771 70.9856 84.0974C72.1415 84.0162 73.1739 84.2045 74.0826 84.6625C74.9985 85.12 75.7333 85.7903 76.2871 86.6735C76.8404 87.5496 77.1587 88.5816 77.2422 89.7695C77.3261 90.9644 77.1521 92.0382 76.7202 92.9906C76.2948 93.9354 75.6606 94.6984 74.8177 95.2794C73.9814 95.8528 72.9888 96.1798 71.84 96.2605ZM71.6496 93.5505C72.5786 93.4852 73.2481 93.1237 73.658 92.4659C74.0745 91.8004 74.248 90.9734 74.1786 89.9847C74.1066 88.9604 73.8151 88.1589 73.3041 87.58C72.8002 87.0007 72.0908 86.7431 71.1759 86.8074C70.5448 86.8517 70.0371 87.0304 69.6528 87.3433C69.2686 87.6562 68.9949 88.0721 68.8318 88.5911C68.6758 89.1096 68.6213 89.7031 68.6683 90.3717C68.7407 91.4031 69.0289 92.2085 69.5328 92.7878C70.0434 93.3595 70.749 93.6138 71.6496 93.5505Z" fill="white"/>
<path d="M85.1786 95.3236C84.0226 95.4048 82.9903 95.2164 82.0815 94.7584C81.1727 94.3004 80.4417 93.6334 79.8884 92.7573C79.3417 91.8736 79.0267 90.8378 78.9432 89.65C78.8588 88.4479 79.0328 87.3742 79.4653 86.4288C79.8972 85.4764 80.5314 84.7135 81.3677 84.1401C82.204 83.5666 83.1895 83.2401 84.3242 83.1604C85.4801 83.0792 86.5125 83.2676 87.4212 83.7255C88.3371 84.183 89.0719 84.8534 89.6257 85.7366C90.179 86.6126 90.4973 87.6446 90.5808 88.8325C90.6647 90.0275 90.4907 91.1012 90.0587 92.0536C89.6334 92.9985 88.9992 93.7614 88.1563 94.3424C87.32 94.9158 86.3274 95.2429 85.1786 95.3236ZM84.9882 92.6135C85.9172 92.5483 86.5867 92.1867 86.9966 91.5289C87.4131 90.8635 87.5866 90.0364 87.5171 89.0477C87.4452 88.0234 87.1537 87.2219 86.6427 86.643C86.1388 86.0637 85.4294 85.8062 84.5145 85.8704C83.8834 85.9148 83.3757 86.0934 82.9914 86.4063C82.6072 86.7192 82.3335 87.1352 82.1704 87.6541C82.0144 88.1726 81.9599 88.7661 82.0069 89.4348C82.0793 90.4661 82.3675 91.2715 82.8714 91.8508C83.382 92.4226 84.0875 92.6768 84.9882 92.6135Z" fill="white"/>
<path d="M101.154 93.8797L100.772 88.4383C100.753 88.1751 100.716 87.8418 100.659 87.4383C100.602 87.0278 100.484 86.6214 100.306 86.2194C100.128 85.8173 99.8592 85.4895 99.4993 85.236C99.1465 84.982 98.6616 84.8767 98.0446 84.92C97.7964 84.9374 97.5332 84.9952 97.255 85.0934C96.9768 85.1916 96.7216 85.3632 96.4894 85.6082C96.2567 85.8462 96.074 86.1878 95.9414 86.6332C95.8159 87.078 95.7783 87.6597 95.8288 88.3781L94.1138 87.7051C94.0499 86.7946 94.1743 85.9281 94.4871 85.1056C94.7999 84.283 95.3079 83.6004 96.0109 83.0578C96.7211 82.5147 97.64 82.2036 98.7676 82.1244C99.6682 82.0611 100.413 82.1625 101.002 82.4285C101.591 82.6945 102.058 83.0512 102.403 83.4988C102.755 83.9458 103.016 84.4207 103.187 84.9233C103.357 85.4189 103.471 85.8755 103.529 86.2932C103.587 86.7109 103.622 87.0157 103.636 87.2078L104.09 93.6735L101.154 93.8797ZM93.3035 94.4312L92.4941 82.9081L95.0684 82.7273L95.3367 86.547L95.6984 86.5216L96.2395 94.2249L93.3035 94.4312Z" fill="white"/>
</g>
<defs>
<filter id="filter0_b_13_82" x="-118.645" y="-118.864" width="393.794" height="394.232" filterUnits="userSpaceOnUse" color-interpolation-filters="sRGB">
<feFlood flood-opacity="0" result="BackgroundImageFix"/>
<feGaussianBlur in="BackgroundImageFix" stdDeviation="62"/>
<feComposite in2="SourceAlpha" operator="in" result="effect1_backgroundBlur_13_82"/>
<feBlend mode="normal" in="SourceGraphic" in2="effect1_backgroundBlur_13_82" result="shape"/>
</filter>
</defs>
</svg>
