<svg width="15" height="15" viewBox="0 0 15 15" fill="none" xmlns="http://www.w3.org/2000/svg">
<path d="M11.566 0.850647H3.11191C1.5556 0.850647 0.293884 2.10426 0.293884 3.65069V12.0507C0.293884 13.5971 1.5556 14.8506 3.11191 14.8506H11.566C13.1223 14.8506 14.384 13.5971 14.384 12.0507V3.65069C14.3841 2.10426 13.1224 0.850647 11.566 0.850647ZM10.157 2.95062H12.2705V5.05063H10.157V2.95062ZM7.33897 5.05073C8.89528 5.05073 10.157 6.3043 10.157 7.85072C10.157 9.39714 8.89528 10.6507 7.33897 10.6507C5.78266 10.6507 4.52096 9.39714 4.52096 7.85072C4.52096 6.3043 5.78266 5.05073 7.33897 5.05073ZM12.9751 12.0508C12.9751 12.824 12.3442 13.4508 11.566 13.4508H3.11191C2.3337 13.4508 1.70286 12.824 1.70286 12.0508V7.15065H3.18231C2.75923 9.4319 4.27736 11.6219 6.57329 12.0423C8.86914 12.4628 11.0733 10.9543 11.4964 8.67308C11.5467 8.40196 11.57 8.12644 11.566 7.85072C11.5625 7.61583 11.539 7.38172 11.4955 7.15075H12.975L12.9751 12.0508Z" fill="black"/>
</svg>
