<svg width="14" height="15" viewBox="0 0 14 15" fill="none" xmlns="http://www.w3.org/2000/svg">
<path d="M6.50045 5.13022H6.7509C7.30512 5.13022 7.75538 4.68274 7.75873 4.12851V2.49761C7.74874 1.95054 7.30412 1.51135 6.75694 1.50809H6.5065C5.95227 1.50809 5.50202 1.95558 5.49866 2.50984V4.14069C5.50865 4.68778 5.95328 5.12702 6.50045 5.13022ZM6.25 2.43656C6.25017 2.22743 6.41982 2.05794 6.62895 2.0581C6.83791 2.05825 7.00731 2.22759 7.00739 2.43656V4.18957C7.00722 4.39869 6.83757 4.56818 6.62844 4.56801C6.41949 4.56784 6.25017 4.39853 6.25 4.18957V2.43656Z" fill="black"/>
<path d="M3.52577 5.06919H4.41141V3.1207L5.41925 0.359863H4.59467L3.98383 2.1923L3.373 0.359863H2.46292L3.53795 3.1207L3.52577 5.06919Z" fill="black"/>
<path d="M9.02298 5.13022C9.3795 5.09595 9.7136 4.94074 9.96976 4.69046V5.06916H10.7027V1.50814H9.96976V4.26902C9.96976 4.26902 9.71931 4.56213 9.48104 4.56213C9.24286 4.56213 9.23059 4.37283 9.23059 4.37283V1.50809H8.4549V4.64158C8.49731 4.9226 8.73877 5.13038 9.02298 5.13022Z" fill="black"/>
<path d="M8.5221 9.22275C8.37495 9.22997 8.23747 9.29867 8.1434 9.41205V11.9409C8.23999 12.0477 8.37806 12.1079 8.5221 12.1058C8.90088 12.1058 8.90088 11.6843 8.90088 11.6843V9.64428C8.90088 9.64428 8.83369 9.22275 8.5221 9.22275Z" fill="black"/>
<path d="M11.4236 9.22275C11.0448 9.22275 11.0448 9.64419 11.0448 9.64419V10.1878H11.8023V9.64419C11.8023 9.64419 11.8023 9.22275 11.4236 9.22275Z" fill="black"/>
<path d="M11.7057 5.91164C11.6951 5.91181 11.6846 5.91206 11.674 5.9124H11.6617C11.6617 5.9124 9.35898 5.78415 7.03793 5.78415C4.71679 5.78415 2.40187 5.90627 2.40187 5.90627C1.39038 5.8725 0.543065 6.66517 0.50937 7.67662C0.508681 7.69728 0.50832 7.71802 0.50837 7.73868C0.39173 8.50708 0.328429 9.28261 0.319031 10.0597C0.327639 10.845 0.39089 11.6288 0.50837 12.4053C0.50779 13.4173 1.32776 14.2382 2.33981 14.2387C2.36047 14.2387 2.38121 14.2384 2.40187 14.2377C2.40187 14.2377 4.68026 14.3598 7.03793 14.3598C9.39568 14.3598 11.674 14.2377 11.674 14.2377C12.6854 14.2715 13.5328 13.4788 13.5665 12.4674C13.5672 12.4467 13.5675 12.426 13.5675 12.4053C13.6844 11.6288 13.7476 10.845 13.7568 10.0597C13.7491 9.27446 13.6858 8.49062 13.5675 7.71424C13.5512 6.70237 12.7177 5.89526 11.7057 5.91164ZM4.29535 7.95856H3.37301V12.7107H2.46293V7.95856H1.54061V7.17673H4.31366L4.29535 7.95856ZM6.69585 12.7107H5.93241V12.3503C5.67256 12.5923 5.3393 12.7407 4.98563 12.7718C4.70151 12.7777 4.45769 12.5706 4.41755 12.2892V8.55722H5.20551V12.0449C5.20551 12.0449 5.20551 12.2282 5.45596 12.2282C5.70641 12.2282 5.9629 11.9289 5.9629 11.9289V8.55722H6.72029L6.69585 12.7107ZM8.96197 12.7718C8.64064 12.7747 8.33703 12.6251 8.14344 12.3687V12.7107H7.31886V7.17673H8.13739V8.97253C8.34686 8.73527 8.64031 8.58854 8.95593 8.56335C9.46287 8.56335 9.65218 8.98479 9.65218 9.52835L9.65831 11.8067C9.65831 11.8067 9.65831 12.7718 8.96197 12.7718ZM12.6207 10.8049H11.0448V11.709C11.0448 11.709 11.0448 12.1304 11.4235 12.1304C11.8022 12.1304 11.8022 11.709 11.8022 11.709V11.2814H12.6208V11.941C12.5112 12.4699 12.0225 12.8325 11.4846 12.784C10.9275 12.8341 10.4138 12.4797 10.263 11.941V9.58336C10.28 8.99663 10.7694 8.53471 11.3561 8.55176C11.3992 8.55302 11.442 8.5568 11.4846 8.56326C12.029 8.48541 12.5333 8.86351 12.6113 9.40775C12.6197 9.46587 12.6228 9.52466 12.6208 9.58336L12.6207 10.8049Z" fill="black"/>
</svg>
